<svg xmlns="http://www.w3.org/2000/svg" width="233.1" height="47.9" viewBox="0 0 233.1 47.9"><g fill="none"><polygon fill="#250077" points="58.66 .08 60.88 .08 60.88 28.9 58.66 28.9"/><path fill="#250077" d="M72.64,0.08 L85.55,0.08 C91.35,0.08 101.25,3.7 101.25,14.59 C101.25,25.48 91.1,28.9 85.55,28.9 L72.64,28.9 L72.64,0.08 Z M74.86,26.93 L85.55,26.93 C90.32,26.93 98.99,23.6 98.99,14.6 C98.99,5.6 90.56,2.02 85.55,2.02 L74.86,2.02 L74.86,26.93 L74.86,26.93 Z"/><polygon fill="#250077" points="132.91 .08 132.91 2.01 111.41 2.01 111.41 14.06 128.55 14.06 128.55 16.03 111.41 16.03 111.37 26.92 133.45 26.92 133.45 28.89 109.15 28.89 109.19 .07 132.91 .07"/><path fill="#250077" d="M142.65,17.27 L142.65,28.91 L140.39,28.91 L140.39,0.09 L154.86,0.09 C158.93,0.09 164.52,3.21 164.52,8.72 C164.52,13.41 159.5,17.27 155.27,17.27 L154.86,17.27 L164.77,28.91 L161.89,28.91 L152.06,17.27 L142.64,17.27 L142.65,17.27 Z M142.65,15.3 L155.27,15.3 C158.31,15.3 162.26,12.3 162.26,8.72 C162.26,4.53 157.94,2.06 154.86,2.06 L142.65,2.06 L142.65,15.3 Z"/><polygon fill="#250077" points="195.4 15.83 174.27 15.83 174.27 28.9 172.05 28.9 172.05 .08 174.27 .08 174.27 13.85 195.4 13.85 195.4 .08 197.62 .08 197.62 28.9 195.36 28.9 195.4 15.83"/><path fill="#250077" d="M209.83,21.71 L206.46,28.9 L204.03,28.9 L217.72,3.55271368e-15 L219.41,3.55271368e-15 L233.1,28.9 L230.67,28.9 L227.26,21.71 L209.83,21.71 L209.83,21.71 Z M226.36,19.78 L218.59,3.34 L210.78,19.78 L226.36,19.78 Z"/><rect width="20.51" height="20.51" y="24.65" fill="#3AE58B" rx="1.42"/><path fill="#3DD1F4" d="M45.05,19.24 C44.4,9.17 36.47,1.08 26.48,0.17 C25.46,0.08 24.59,0.9 24.59,1.93 L24.59,19.11 C24.59,19.93 25.25,20.59 26.07,20.59 L43.8,20.59 C44.53,20.59 45.1,19.97 45.05,19.24 Z"/><path fill="#250077" d="M26.1,45.13 C36.2,44.38 44.27,36.32 45.02,26.21 C45.08,25.38 44.42,24.68 43.6,24.68 L26,24.68 C25.21,24.68 24.58,25.32 24.58,26.1 L24.58,43.7 C24.58,44.53 25.29,45.19 26.11,45.12 L26.1,45.13 Z"/><circle cx="10.26" cy="10.34" r="10.25" fill="#DADADA"/><rect width="1.31" height="5.81" x="58.76" y="39.23" fill="#250077"/><path fill="#250077" d="M59.45 36.39C59.25 36.39 59.07 36.46 58.91 36.6 58.75 36.74 58.66 36.91 58.66 37.12 58.66 37.33 58.74 37.5 58.91 37.64 59.07 37.78 59.25 37.85 59.45 37.85 59.65 37.85 59.82 37.78 59.98 37.65 60.13 37.51 60.21 37.34 60.21 37.12 60.21 36.9 60.13 36.74 59.98 36.6 59.83 36.46 59.65 36.39 59.45 36.39ZM65.92 39C65.37 39 64.88 39.13 64.46 39.39 64.06 39.63 63.77 39.96 63.58 40.37L63.49 39.23 62.32 39.23 62.32 45.04 63.63 45.04 63.63 42.32C63.63 41.89 63.71 41.51 63.86 41.18 64.01 40.85 64.23 40.6 64.5 40.41 64.77 40.22 65.08 40.13 65.41 40.13 65.78 40.13 66.04 40.23 66.22 40.43 66.39 40.63 66.48 40.89 66.49 41.21L66.49 45.04 67.81 45.04 67.81 40.74C67.81 40.23 67.62 39.81 67.27 39.48 66.92 39.16 66.47 39 65.91 39L65.92 39Z"/><polygon fill="#250077" points="71.96 36.67 70.65 36.67 70.65 39.26 69.58 39.26 69.58 40.28 70.65 40.28 70.65 45.04 71.96 45.04 71.96 40.28 73.56 40.28 73.56 39.26 71.96 39.26"/><path fill="#250077" d="M79.76 39.66C79.25 39.21 78.62 38.99 77.85 38.99 77.25 38.99 76.71 39.13 76.22 39.41 75.73 39.69 75.35 40.07 75.06 40.53 74.77 41 74.62 41.52 74.62 42.09 74.62 42.69 74.75 43.22 75.01 43.68 75.27 44.14 75.63 44.51 76.11 44.78 76.59 45.05 77.16 45.18 77.82 45.18 78.17 45.18 78.52 45.12 78.88 45 79.24 44.88 79.57 44.72 79.86 44.52L79.26 43.55C79.05 43.7 78.83 43.82 78.59 43.91 78.35 44 78.11 44.05 77.85 44.05 77.48 44.05 77.14 43.96 76.85 43.79 76.57 43.63 76.36 43.4 76.19 43.13L80.78 41.51C80.6 40.72 80.26 40.11 79.75 39.66L79.76 39.66ZM76.14 40.99C76.3 40.69 76.52 40.45 76.8 40.28 77.08 40.11 77.4 40.02 77.75 40.02 78.17 40.02 78.51 40.13 78.78 40.36 79.02 40.57 79.19 40.82 79.31 41.1L75.94 42.33C75.93 42.23 75.9 42.13 75.9 42.01 75.9 41.63 75.98 41.28 76.14 40.98L76.14 40.99ZM87.27 40.07C87.07 39.76 86.78 39.51 86.37 39.3 85.94 39.09 85.47 38.98 84.96 38.98 84.42 38.98 83.92 39.12 83.46 39.39 83 39.66 82.63 40.03 82.35 40.49 82.07 40.95 81.93 41.49 81.93 42.1 81.93 42.71 82.06 43.2 82.33 43.66 82.6 44.12 82.95 44.49 83.4 44.76 83.85 45.03 84.33 45.17 84.87 45.17 85.5 45.17 86.03 45.03 86.47 44.76 86.84 44.53 87.09 44.24 87.27 43.92L87.27 45.06C87.26 45.4 87.18 45.69 87.02 45.95 86.86 46.21 86.63 46.41 86.32 46.55 86.02 46.69 85.64 46.77 85.2 46.77 84.81 46.77 84.45 46.69 84.13 46.53 83.81 46.37 83.5 46.15 83.19 45.86L82.43 46.74C82.67 46.96 82.93 47.17 83.2 47.34 83.47 47.52 83.76 47.66 84.09 47.75 84.42 47.85 84.8 47.9 85.23 47.9 85.92 47.9 86.52 47.77 87.01 47.52 87.51 47.27 87.89 46.93 88.16 46.5 88.43 46.07 88.57 45.59 88.57 45.07L88.57 39.22 87.38 39.22 87.27 40.06 87.27 40.07ZM86.87 43.39C86.68 43.61 86.45 43.78 86.18 43.91 85.91 44.04 85.59 44.1 85.25 44.1 84.88 44.1 84.54 44.01 84.23 43.83 83.93 43.65 83.68 43.41 83.51 43.1 83.33 42.79 83.24 42.45 83.24 42.08 83.24 41.69 83.33 41.34 83.51 41.03 83.69 40.73 83.93 40.49 84.23 40.32 84.53 40.15 84.87 40.07 85.25 40.07 85.58 40.07 85.88 40.13 86.15 40.25 86.42 40.37 86.66 40.53 86.85 40.74 87.05 40.95 87.19 41.2 87.27 41.48L87.27 42.63C87.19 42.92 87.06 43.18 86.88 43.4L86.87 43.39ZM92.7 39.78C92.44 40.01 92.24 40.28 92.09 40.6L91.99 39.22 90.82 39.22 90.82 45.03 92.11 45.03 92.11 42.38C92.11 42.01 92.21 41.65 92.4 41.33 92.59 41.01 92.85 40.74 93.19 40.54 93.52 40.34 93.91 40.26 94.35 40.29L94.42 39C94.19 39 93.91 39.07 93.6 39.2 93.29 39.34 92.99 39.53 92.7 39.78L92.7 39.78ZM100.63 40.17C100.44 39.86 100.17 39.59 99.83 39.36 99.45 39.11 99 38.99 98.45 38.99 97.9 38.99 97.41 39.12 96.95 39.37 96.5 39.62 96.13 39.99 95.86 40.46 95.59 40.93 95.45 41.49 95.45 42.14 95.45 42.79 95.58 43.35 95.84 43.8 96.1 44.25 96.45 44.6 96.89 44.83 97.33 45.06 97.83 45.18 98.37 45.18 98.71 45.18 99.01 45.13 99.28 45.03 99.55 44.93 99.79 44.81 100 44.66 100.21 44.51 100.38 44.36 100.51 44.22 100.55 44.17 100.58 44.13 100.62 44.09L100.62 45.05 101.93 45.05 101.93 39.24 100.72 39.24 100.62 40.18 100.63 40.17ZM100.27 43.41C100.1 43.63 99.88 43.8 99.62 43.92 99.36 44.04 99.06 44.1 98.73 44.1 98.38 44.1 98.06 44.01 97.76 43.83 97.46 43.65 97.22 43.41 97.04 43.1 96.86 42.79 96.77 42.45 96.77 42.08 96.77 41.68 96.86 41.33 97.03 41.03 97.2 40.73 97.43 40.5 97.73 40.33 98.02 40.16 98.34 40.08 98.68 40.08 99 40.08 99.29 40.14 99.55 40.26 99.81 40.38 100.04 40.54 100.22 40.75 100.4 40.96 100.54 41.21 100.61 41.49L100.61 42.63C100.54 42.94 100.42 43.2 100.25 43.42L100.27 43.41Z"/><polygon fill="#250077" points="106.06 36.67 104.75 36.67 104.75 39.26 103.68 39.26 103.68 40.28 104.75 40.28 104.75 45.04 106.06 45.04 106.06 40.28 107.66 40.28 107.66 39.26 106.06 39.26"/><rect width="1.31" height="5.81" x="109.23" y="39.23" fill="#250077"/><path fill="#250077" d="M109.92 36.39C109.72 36.39 109.54 36.46 109.38 36.6 109.22 36.74 109.13 36.91 109.13 37.12 109.13 37.33 109.21 37.5 109.38 37.64 109.54 37.78 109.72 37.85 109.92 37.85 110.12 37.85 110.29 37.78 110.45 37.65 110.6 37.51 110.68 37.34 110.68 37.12 110.68 36.9 110.6 36.74 110.45 36.6 110.3 36.46 110.12 36.39 109.92 36.39ZM116.39 39C115.84 39 115.35 39.13 114.93 39.39 114.53 39.63 114.24 39.96 114.05 40.37L113.96 39.23 112.79 39.23 112.79 45.04 114.1 45.04 114.1 42.32C114.1 41.89 114.18 41.51 114.33 41.18 114.48 40.85 114.7 40.6 114.97 40.41 115.24 40.22 115.55 40.13 115.88 40.13 116.25 40.13 116.51 40.23 116.69 40.43 116.86 40.63 116.95 40.89 116.96 41.21L116.96 45.04 118.28 45.04 118.28 40.74C118.28 40.23 118.09 39.81 117.74 39.48 117.39 39.16 116.94 39 116.38 39L116.39 39ZM125.39 40.07C125.19 39.76 124.9 39.51 124.49 39.3 124.06 39.09 123.59 38.98 123.08 38.98 122.54 38.98 122.04 39.12 121.58 39.39 121.12 39.66 120.75 40.03 120.47 40.49 120.19 40.95 120.05 41.49 120.05 42.1 120.05 42.71 120.18 43.2 120.45 43.66 120.72 44.12 121.07 44.49 121.52 44.76 121.97 45.03 122.45 45.17 122.99 45.17 123.62 45.17 124.15 45.03 124.59 44.76 124.96 44.53 125.21 44.24 125.39 43.92L125.39 45.06C125.38 45.4 125.3 45.69 125.14 45.95 124.98 46.21 124.75 46.41 124.44 46.55 124.14 46.69 123.76 46.77 123.32 46.77 122.93 46.77 122.57 46.69 122.25 46.53 121.93 46.37 121.62 46.15 121.31 45.86L120.55 46.74C120.79 46.96 121.05 47.17 121.32 47.34 121.59 47.52 121.88 47.66 122.21 47.75 122.54 47.85 122.92 47.9 123.35 47.9 124.04 47.9 124.64 47.77 125.13 47.52 125.63 47.27 126.01 46.93 126.28 46.5 126.55 46.07 126.69 45.59 126.69 45.07L126.69 39.22 125.5 39.22 125.39 40.06 125.39 40.07ZM124.99 43.39C124.8 43.61 124.57 43.78 124.3 43.91 124.03 44.04 123.71 44.1 123.37 44.1 123 44.1 122.66 44.01 122.35 43.83 122.05 43.65 121.8 43.41 121.63 43.1 121.45 42.79 121.36 42.45 121.36 42.08 121.36 41.69 121.45 41.34 121.63 41.03 121.81 40.73 122.05 40.49 122.35 40.32 122.65 40.15 122.99 40.07 123.37 40.07 123.7 40.07 124 40.13 124.27 40.25 124.54 40.37 124.78 40.53 124.97 40.74 125.17 40.95 125.31 41.2 125.39 41.48L125.39 42.63C125.31 42.92 125.18 43.18 125 43.4L124.99 43.39ZM136.98 39C136.43 39 135.95 39.13 135.54 39.38 135.15 39.62 134.86 39.93 134.66 40.29L134.66 34.17 133.38 34.17 133.38 45.04 134.69 45.04 134.69 42.32C134.69 41.9 134.77 41.52 134.92 41.2 135.07 40.88 135.29 40.61 135.56 40.42 135.83 40.23 136.14 40.13 136.47 40.13 136.84 40.13 137.1 40.23 137.28 40.43 137.45 40.63 137.54 40.89 137.55 41.21L137.55 45.04 138.87 45.04 138.87 40.74C138.87 40.23 138.68 39.81 138.33 39.48 137.98 39.16 137.53 39 136.97 39L136.98 39ZM145.78 39.66C145.27 39.21 144.64 38.99 143.87 38.99 143.27 38.99 142.73 39.13 142.24 39.41 141.75 39.69 141.37 40.07 141.08 40.53 140.79 41 140.64 41.52 140.64 42.09 140.64 42.69 140.77 43.22 141.03 43.68 141.29 44.14 141.65 44.51 142.13 44.78 142.61 45.05 143.18 45.18 143.84 45.18 144.19 45.18 144.54 45.12 144.9 45 145.26 44.88 145.59 44.72 145.88 44.52L145.28 43.55C145.07 43.7 144.85 43.82 144.61 43.91 144.37 44 144.13 44.05 143.87 44.05 143.5 44.05 143.16 43.96 142.87 43.79 142.59 43.63 142.38 43.4 142.21 43.13L146.8 41.51C146.62 40.72 146.28 40.11 145.77 39.66L145.78 39.66ZM142.16 40.99C142.32 40.69 142.54 40.45 142.82 40.28 143.1 40.11 143.42 40.02 143.77 40.02 144.19 40.02 144.53 40.13 144.8 40.36 145.04 40.57 145.21 40.82 145.33 41.1L141.96 42.33C141.95 42.23 141.92 42.13 141.92 42.01 141.92 41.63 142 41.28 142.16 40.98L142.16 40.99ZM153.12 40.17C152.93 39.86 152.66 39.59 152.32 39.36 151.94 39.11 151.49 38.99 150.94 38.99 150.39 38.99 149.9 39.12 149.44 39.37 148.99 39.62 148.62 39.99 148.35 40.46 148.08 40.93 147.94 41.49 147.94 42.14 147.94 42.79 148.07 43.35 148.33 43.8 148.59 44.25 148.94 44.6 149.38 44.83 149.82 45.06 150.32 45.18 150.86 45.18 151.2 45.18 151.5 45.13 151.77 45.03 152.04 44.93 152.28 44.81 152.49 44.66 152.7 44.51 152.87 44.36 153 44.22 153.04 44.17 153.07 44.13 153.11 44.09L153.11 45.05 154.42 45.05 154.42 39.24 153.21 39.24 153.11 40.18 153.12 40.17ZM152.76 43.41C152.59 43.63 152.37 43.8 152.11 43.92 151.85 44.04 151.55 44.1 151.22 44.1 150.87 44.1 150.55 44.01 150.25 43.83 149.95 43.65 149.71 43.41 149.53 43.1 149.35 42.79 149.26 42.45 149.26 42.08 149.26 41.68 149.35 41.33 149.52 41.03 149.69 40.73 149.92 40.5 150.22 40.33 150.51 40.16 150.83 40.08 151.17 40.08 151.49 40.08 151.78 40.14 152.04 40.26 152.3 40.38 152.53 40.54 152.71 40.75 152.89 40.96 153.03 41.21 153.1 41.49L153.1 42.63C153.03 42.94 152.91 43.2 152.74 43.42L152.76 43.41Z"/><rect width="1.31" height="10.87" x="156.68" y="34.17" fill="#250077"/><polygon fill="#250077" points="162.11 36.67 160.81 36.67 160.81 39.26 159.74 39.26 159.74 40.28 160.81 40.28 160.81 45.04 162.11 45.04 162.11 40.28 163.71 40.28 163.71 39.26 162.11 39.26"/><path fill="#250077" d="M168.88 39C168.33 39 167.85 39.13 167.44 39.38 167.05 39.62 166.76 39.93 166.56 40.29L166.56 34.17 165.28 34.17 165.28 45.04 166.59 45.04 166.59 42.32C166.59 41.9 166.67 41.52 166.82 41.2 166.97 40.88 167.19 40.61 167.46 40.42 167.73 40.23 168.04 40.13 168.37 40.13 168.74 40.13 169 40.23 169.18 40.43 169.35 40.63 169.44 40.89 169.45 41.21L169.45 45.04 170.77 45.04 170.77 40.74C170.77 40.23 170.58 39.81 170.23 39.48 169.88 39.16 169.43 39 168.87 39L168.88 39ZM182.24 40.04C182.01 39.73 181.71 39.47 181.32 39.29 180.9 39.09 180.47 39 180.01 39 179.44 39 178.92 39.12 178.47 39.37 178.01 39.61 177.65 39.96 177.38 40.42 177.11 40.88 176.98 41.43 176.98 42.08 176.98 42.73 177.11 43.24 177.36 43.72 177.61 44.2 177.96 44.56 178.39 44.81 178.82 45.07 179.31 45.2 179.84 45.2 180.37 45.2 180.88 45.08 181.31 44.86 181.68 44.67 181.97 44.41 182.22 44.13L182.22 45.07 183.53 45.07 183.53 34.2 182.24 34.2 182.24 40.06 182.24 40.04ZM181.85 43.36C181.67 43.58 181.45 43.76 181.18 43.89 180.91 44.02 180.6 44.08 180.25 44.08 179.9 44.08 179.58 43.99 179.28 43.81 178.98 43.63 178.74 43.38 178.56 43.08 178.38 42.78 178.29 42.43 178.29 42.05 178.29 41.67 178.38 41.31 178.56 41.01 178.74 40.71 178.97 40.47 179.27 40.3 179.56 40.13 179.89 40.04 180.25 40.04 180.58 40.04 180.87 40.1 181.14 40.23 181.41 40.36 181.64 40.52 181.83 40.74 182.02 40.96 182.16 41.2 182.23 41.48L182.23 42.57C182.15 42.88 182.03 43.15 181.85 43.37L181.85 43.36ZM190.47 40.17C190.28 39.86 190.01 39.59 189.67 39.36 189.29 39.11 188.84 38.99 188.29 38.99 187.74 38.99 187.25 39.12 186.79 39.37 186.34 39.62 185.97 39.99 185.7 40.46 185.43 40.93 185.29 41.49 185.29 42.14 185.29 42.79 185.42 43.35 185.68 43.8 185.94 44.25 186.29 44.6 186.73 44.83 187.17 45.06 187.67 45.18 188.21 45.18 188.55 45.18 188.85 45.13 189.12 45.03 189.39 44.93 189.63 44.81 189.84 44.66 190.05 44.51 190.22 44.36 190.35 44.22 190.39 44.17 190.42 44.13 190.46 44.09L190.46 45.05 191.77 45.05 191.77 39.24 190.56 39.24 190.46 40.18 190.47 40.17ZM190.11 43.41C189.94 43.63 189.72 43.8 189.46 43.92 189.2 44.04 188.9 44.1 188.57 44.1 188.22 44.1 187.9 44.01 187.6 43.83 187.3 43.65 187.06 43.41 186.88 43.1 186.7 42.79 186.61 42.45 186.61 42.08 186.61 41.68 186.7 41.33 186.87 41.03 187.04 40.73 187.27 40.5 187.57 40.33 187.86 40.16 188.18 40.08 188.52 40.08 188.84 40.08 189.13 40.14 189.39 40.26 189.65 40.38 189.88 40.54 190.06 40.75 190.24 40.96 190.38 41.21 190.45 41.49L190.45 42.63C190.38 42.94 190.26 43.2 190.09 43.42L190.11 43.41Z"/><polygon fill="#250077" points="195.9 36.67 194.6 36.67 194.6 39.26 193.53 39.26 193.53 40.28 194.6 40.28 194.6 45.04 195.9 45.04 195.9 40.28 197.5 40.28 197.5 39.26 195.9 39.26"/><path fill="#250077" d="M203.83,39.23 L203.73,40.17 C203.54,39.86 203.27,39.59 202.93,39.36 C202.55,39.11 202.1,38.99 201.55,38.99 C201,38.99 200.51,39.12 200.05,39.37 C199.6,39.62 199.23,39.99 198.96,40.46 C198.69,40.93 198.55,41.49 198.55,42.14 C198.55,42.79 198.68,43.35 198.94,43.8 C199.2,44.25 199.55,44.6 199.99,44.83 C200.43,45.06 200.93,45.18 201.47,45.18 C201.81,45.18 202.11,45.13 202.38,45.03 C202.65,44.93 202.89,44.81 203.1,44.66 C203.31,44.51 203.48,44.36 203.61,44.22 C203.65,44.17 203.68,44.13 203.72,44.09 L203.72,45.05 L205.03,45.05 L205.03,39.24 L203.82,39.24 L203.83,39.23 Z M203.37,43.41 C203.2,43.63 202.98,43.8 202.72,43.92 C202.46,44.04 202.16,44.1 201.83,44.1 C201.48,44.1 201.16,44.01 200.86,43.83 C200.56,43.65 200.32,43.41 200.14,43.1 C199.96,42.79 199.87,42.45 199.87,42.08 C199.87,41.68 199.96,41.33 200.13,41.03 C200.3,40.73 200.53,40.5 200.83,40.33 C201.12,40.16 201.44,40.08 201.78,40.08 C202.1,40.08 202.39,40.14 202.65,40.26 C202.91,40.38 203.14,40.54 203.32,40.75 C203.5,40.96 203.64,41.21 203.71,41.49 L203.71,42.63 C203.64,42.94 203.52,43.2 203.35,43.42 L203.37,43.41 Z"/></g></svg>