<svg xmlns="http://www.w3.org/2000/svg" xmlns:xlink="http://www.w3.org/1999/xlink" viewBox="0 0 245.74 173.56"><defs><style>.cls-1{fill:none;}.cls-2,.cls-6{fill:#312783;}.cls-3{fill:#6dc3c1;}.cls-4{clip-path:url(#clip-path);}.cls-5{fill:#e72b76;}.cls-6{stroke:#312783;stroke-miterlimit:10;stroke-width:0.5px;}</style><clipPath id="clip-path"><circle class="cls-1" cx="123.4" cy="64" r="57.57"/></clipPath></defs><g id="Ebene_2" data-name="Ebene 2"><path class="cls-2" d="M9.63,140.41a2.17,2.17,0,0,1,2.2-2.19,2.23,2.23,0,0,1,2.24,2.19V164a2.23,2.23,0,0,1-2.24,2.2,2.17,2.17,0,0,1-2.2-2.2Z"/><path class="cls-2" d="M35.83,154.49v9.6a2.13,2.13,0,0,1-2.12,2.12,2.2,2.2,0,0,1-2.16-2.12v-9.6a4.08,4.08,0,0,0-8.16.12v9.48c0,.08,0,.2,0,.28v.12c0,.08,0,.16-.12.24v.2a2.33,2.33,0,0,1-2,1.28c-.16,0-.28,0-.4,0a2.18,2.18,0,0,1-1.72-2.08V148.37a2.12,2.12,0,0,1,2.12-2.16,2,2,0,0,1,1.92,1.2,8.42,8.42,0,0,1,4.28-1.2A8.3,8.3,0,0,1,33.71,149,8.24,8.24,0,0,1,40,146.21a8.35,8.35,0,0,1,8.31,8.4v9.48a2.13,2.13,0,0,1-2.11,2.12A2.17,2.17,0,0,1,44,164.09v-9.48a4.1,4.1,0,0,0-4-4.12A4.15,4.15,0,0,0,35.83,154.49Z"/><path class="cls-2" d="M68.75,154.49v9.6a2.13,2.13,0,0,1-2.12,2.12,2.2,2.2,0,0,1-2.16-2.12v-9.6a4.08,4.08,0,0,0-8.16.12v9.48c0,.08,0,.2,0,.28v.12c0,.08,0,.16-.12.24v.2a2.33,2.33,0,0,1-2,1.28c-.16,0-.28,0-.4,0A2.18,2.18,0,0,1,52,164.09V148.37a2.12,2.12,0,0,1,2.12-2.16,2,2,0,0,1,1.92,1.2,8.42,8.42,0,0,1,4.28-1.2A8.3,8.3,0,0,1,66.63,149a8.24,8.24,0,0,1,6.28-2.76,8.35,8.35,0,0,1,8.31,8.4v9.48a2.13,2.13,0,0,1-2.12,2.12A2.17,2.17,0,0,1,77,164.09v-9.48a4.1,4.1,0,0,0-4-4.12A4.15,4.15,0,0,0,68.75,154.49Z"/><path class="cls-2" d="M100.11,166.21a11.54,11.54,0,0,1-11.56-11.56V140.41a2.17,2.17,0,0,1,2.2-2.19A2.23,2.23,0,0,1,93,140.41v14.24a7.12,7.12,0,0,0,14.24,0V140.41a2.2,2.2,0,0,1,2.23-2.19,2.17,2.17,0,0,1,2.21,2.19v14.24A11.57,11.57,0,0,1,100.11,166.21Z"/><path class="cls-2" d="M131.59,154.53v9.56a2.1,2.1,0,0,1-2.08,2.12,2.16,2.16,0,0,1-2.12-2.12v-9.56a4.11,4.11,0,0,0-4.16-4,4,4,0,0,0-4,4v9.56a.79.79,0,0,1-.08.4,2.19,2.19,0,0,1-2.12,1.72,2.11,2.11,0,0,1-2.12-2.12V148.33a2.11,2.11,0,0,1,2.12-2.12,2.16,2.16,0,0,1,2,1.24,8,8,0,0,1,4.24-1.24A8.37,8.37,0,0,1,131.59,154.53Z"/><path class="cls-2" d="M140.51,141.21a2.16,2.16,0,0,1-2.16,2.2,2.19,2.19,0,0,1-2.16-2.2v-.84a2.15,2.15,0,0,1,2.16-2.15,2.12,2.12,0,0,1,2.16,2.15Zm0,7.24v15.6a2.13,2.13,0,0,1-2.16,2.16,2.15,2.15,0,0,1-2.16-2.16v-15.6a2.14,2.14,0,0,1,2.16-2.2A2.11,2.11,0,0,1,140.51,148.45Z"/><path class="cls-2" d="M161.18,149.41l-6.55,15.52a.86.86,0,0,1-.16.28,0,0,0,0,1,0,0c-.08.08-.16.2-.24.28a0,0,0,0,1,0,0,1.36,1.36,0,0,1-.24.24,0,0,0,0,0,0,0,.72.72,0,0,1-.28.2h-.08v0a.75.75,0,0,0-.32.08h-.08a1.5,1.5,0,0,1-.4,0,1.38,1.38,0,0,1-.36,0h-.08a.94.94,0,0,0-.32-.08v0h-.08a3.61,3.61,0,0,1-.36-.2,0,0,0,0,0,0,0,1.36,1.36,0,0,1-.24-.24s0,0-.08,0a1.22,1.22,0,0,0-.2-.28s0,0,0,0-.12-.16-.16-.28l-6.48-15.52a2,2,0,0,1,1.16-2.72,2.05,2.05,0,0,1,2.68,1.16l4.6,10.88,4.64-10.88a2.07,2.07,0,1,1,3.83,1.56Z"/><path class="cls-2" d="M164.07,156.21a9.9,9.9,0,0,1,9.76-10,9.56,9.56,0,0,1,9.63,9.28v.2a1.11,1.11,0,0,1,0,.36,1.93,1.93,0,0,1-2.08,1.6H168.63a5.24,5.24,0,0,0,1.36,2.64,6.19,6.19,0,0,0,3.84,1.8,6.54,6.54,0,0,0,4.16-1,2.25,2.25,0,0,1,3-.12,1.83,1.83,0,0,1,0,2.6,10.07,10.07,0,0,1-7.15,2.64A9.93,9.93,0,0,1,164.07,156.21Zm4.36-2h11.32a6.55,6.55,0,0,0-5.92-4.24A5.59,5.59,0,0,0,168.43,154.25Z"/><path class="cls-2" d="M199.3,148.33a2.13,2.13,0,0,1-2.12,2.12,3.79,3.79,0,0,0-2.39.76,6,6,0,0,0-1.84,1.92,12.27,12.27,0,0,0-1.64,3.36v7.6a2.18,2.18,0,0,1-2.2,2.12,2.13,2.13,0,0,1-2.12-2.12V148.33a2.1,2.1,0,0,1,2.12-2.08,2.14,2.14,0,0,1,2.2,2.08v.28a5.26,5.26,0,0,1,.84-.8,8.76,8.76,0,0,1,5-1.56A2.07,2.07,0,0,1,199.3,148.33Z"/><path class="cls-2" d="M201.59,160.49a2.08,2.08,0,0,1,3-.32,7.34,7.34,0,0,0,4.4,1.76,5.37,5.37,0,0,0,2.72-.76,1.65,1.65,0,0,0,.71-1.2.6.6,0,0,0-.12-.4c0-.12-.2-.28-.51-.48a9.36,9.36,0,0,0-3.2-1.12h0a15.35,15.35,0,0,1-3.48-1,6.68,6.68,0,0,1-2.76-2.32,4.85,4.85,0,0,1-.68-2.52,5.62,5.62,0,0,1,2.36-4.4,8.6,8.6,0,0,1,4.92-1.48,10.22,10.22,0,0,1,6,2.2,2.21,2.21,0,0,1,.64,3,2.11,2.11,0,0,1-2.95.56,6.91,6.91,0,0,0-3.68-1.48,4.07,4.07,0,0,0-2.4.72,1.22,1.22,0,0,0-.64.92.43.43,0,0,0,.08.32,1.08,1.08,0,0,0,.44.4,8.16,8.16,0,0,0,2.91,1l0,0h0A14.28,14.28,0,0,1,213.1,155a6.22,6.22,0,0,1,2.84,2.36,5.18,5.18,0,0,1,.76,2.64,5.77,5.77,0,0,1-2.52,4.64,9.07,9.07,0,0,1-5.19,1.6,11.62,11.62,0,0,1-7.12-2.76A2.13,2.13,0,0,1,201.59,160.49Z"/><path class="cls-2" d="M218.83,156.21a9.9,9.9,0,0,1,9.76-10,9.56,9.56,0,0,1,9.63,9.28v.2a1.11,1.11,0,0,1,0,.36,1.93,1.93,0,0,1-2.08,1.6H223.39a5.24,5.24,0,0,0,1.36,2.64,6.16,6.16,0,0,0,3.84,1.8,6.52,6.52,0,0,0,4.15-1,2.26,2.26,0,0,1,3-.12,1.83,1.83,0,0,1,0,2.6,10.1,10.1,0,0,1-7.15,2.64A9.93,9.93,0,0,1,218.83,156.21Zm4.36-2H234.5a6.54,6.54,0,0,0-5.91-4.24A5.59,5.59,0,0,0,223.19,154.25Z"/><path class="cls-3" d="M123.4,93.27C66.79,93.27,5.87,83.9,5.87,63.34S66.79,33.42,123.4,33.42s117.53,9.37,117.53,29.92S180,93.27,123.4,93.27Zm0-50.85c-29.87,0-57.9,2.61-78.94,7.34C20.19,55.22,14.87,61.42,14.87,63.34s5.32,8.13,29.59,13.59c21,4.73,49.07,7.34,78.94,7.34s57.9-2.61,78.94-7.34c24.27-5.46,29.59-11.66,29.59-13.59s-5.32-8.12-29.59-13.58C181.3,45,153.27,42.42,123.4,42.42Z"/><g class="cls-4"><path class="cls-5" d="M218.52,36.43a2.92,2.92,0,0,0-2.12-3.56,2.93,2.93,0,1,0,1.44-5.68L190,20.12,177.28,16.9,149.43,9.83A2.93,2.93,0,0,0,148,15.51a2.93,2.93,0,0,0-1.44,5.68,2.93,2.93,0,0,0-1.44,5.68,2.93,2.93,0,1,0-1.44,5.68,2.93,2.93,0,0,0-1.44,5.68,2.93,2.93,0,1,0-1.44,5.67,2.93,2.93,0,0,0-1.44,5.68,2.93,2.93,0,0,0-1.44,5.68,2.93,2.93,0,0,0-1.44,5.68A2.93,2.93,0,0,0,135,66.62a2.93,2.93,0,0,0-1.44,5.68A2.93,2.93,0,0,0,132.14,78a2.93,2.93,0,1,0-1.44,5.67,2.93,2.93,0,0,0-1.44,5.68,2.94,2.94,0,0,0-3.56,2.12c-.39,1.57-2.51,2.39-.94,2.78-1.57-.39-.1,1.33-.5,2.9s-2.8,2.31-1.24,2.71c-1.56-.4.2,1.4-.2,3a2.93,2.93,0,0,0,2.12,3.56,2.93,2.93,0,0,0-1.44,5.68,2.93,2.93,0,0,0-1.44,5.68,2.93,2.93,0,0,0-1.44,5.68l27.85,7.06,12.71,3.23L189,140.76a2.93,2.93,0,1,0,1.44-5.68,2.93,2.93,0,1,0,1.44-5.68,2.93,2.93,0,1,0,1.44-5.67,2.93,2.93,0,1,0,1.44-5.68,2.93,2.93,0,1,0,1.44-5.68,2.93,2.93,0,1,0,1.44-5.68,2.93,2.93,0,0,0,1.45-5.68,2.93,2.93,0,1,0,1.44-5.68A2.93,2.93,0,1,0,202,89.65,2.93,2.93,0,1,0,203.44,84a2.93,2.93,0,1,0,1.44-5.67,2.93,2.93,0,1,0,1.44-5.68,2.93,2.93,0,1,0,1.44-5.68,2.93,2.93,0,1,0,1.44-5.68,2.93,2.93,0,1,0,1.44-5.68,2.93,2.93,0,0,0,1.44-5.68,2.93,2.93,0,0,0,1.44-5.68A2.93,2.93,0,1,0,215,38.55,2.94,2.94,0,0,0,218.52,36.43Z"/><path class="cls-2" d="M159.74,33.6A2.94,2.94,0,0,0,157.62,30l-25.11-6.37A2.93,2.93,0,1,0,134,18l18.65,4.73A2.93,2.93,0,1,0,154,17.05l-18.65-4.74a2.93,2.93,0,0,0,1.44-5.68L109-.43,96.27-3.66,68.42-10.72A2.92,2.92,0,0,0,64.86-8.6,2.93,2.93,0,0,0,67-5a2.92,2.92,0,0,0-3.56,2.12A2.93,2.93,0,0,0,65.54.64a2.93,2.93,0,1,0-1.45,5.67A2.93,2.93,0,1,0,62.65,12a2.93,2.93,0,1,0-1.44,5.68,2.93,2.93,0,1,0-1.44,5.68A2.93,2.93,0,1,0,58.33,29a2.93,2.93,0,0,0-1.44,5.68,2.93,2.93,0,0,0-1.44,5.68A2.93,2.93,0,0,0,54,46.07a2.93,2.93,0,1,0-1.44,5.67,2.93,2.93,0,0,0-1.44,5.68,2.93,2.93,0,0,0-1.44,5.68,2.93,2.93,0,0,0-1.44,5.68,2.93,2.93,0,1,0-1.44,5.68,2.93,2.93,0,0,0-1.44,5.68,2.93,2.93,0,0,0-1.44,5.68,2.93,2.93,0,0,0-1.45,5.67A2.93,2.93,0,0,0,41,97.17a2.93,2.93,0,1,0-1.44,5.68l21.24,5.39,6.61,1.68,12.72,3.22,8.52,2.16,12.71,3.23,6.61,1.68,21.24,5.38a2.93,2.93,0,1,0,1.44-5.67l-21.23-5.39a2.93,2.93,0,0,0,1.44-5.68L131.3,114a2.93,2.93,0,1,0,1.44-5.68l-20.4-5.18a2.93,2.93,0,1,0,1.44-5.68l10.36,2.63a2.93,2.93,0,1,0,1.44-5.68l-10.36-2.63a2.93,2.93,0,1,0,1.44-5.67l23.81,6a2.93,2.93,0,1,0,1.44-5.68l-23.81-6a2.93,2.93,0,1,0,1.44-5.68L140.19,80a2.93,2.93,0,1,0,1.44-5.68L121,69.1a2.93,2.93,0,1,0,1.44-5.68L136,66.86a2.93,2.93,0,1,0,1.44-5.68l-13.57-3.44a2.93,2.93,0,1,0,1.44-5.68l21.9,5.56a2.93,2.93,0,1,0,1.44-5.68l-21.9-5.55a2.93,2.93,0,1,0,1.44-5.68l17.52,4.44a2.93,2.93,0,0,0,1.44-5.68L129.63,35a2.93,2.93,0,0,0,1.44-5.68l25.11,6.37A2.93,2.93,0,0,0,159.74,33.6Z"/><path class="cls-5" d="M206,24.18l-27.85-7.06-12.71-3.23L137.59,6.83a2.93,2.93,0,0,0-1.44,5.68L164,19.57l12.71,3.23,27.85,7.06A2.93,2.93,0,1,0,206,24.18Z"/><path class="cls-5" d="M191.35,32.55,163.5,25.49l-12.72-3.23L122.93,15.2a2.93,2.93,0,0,0-1.44,5.68l27.85,7.06,12.71,3.23,27.85,7.06a2.93,2.93,0,0,0,1.45-5.68Z"/><path class="cls-5" d="M191.63,44.72l-27.85-7.07-12.71-3.23-27.85-7.06A2.93,2.93,0,0,0,121.78,33l27.85,7.06,12.71,3.23,27.85,7.06a2.93,2.93,0,1,0,1.44-5.67Z"/><path class="cls-5" d="M193.63,57.31l-27.85-7.07L153.07,47,125.22,40a2.93,2.93,0,0,0-1.44,5.68l27.85,7.07,12.71,3.22L192.19,63a2.93,2.93,0,1,0,1.44-5.68Z"/><path class="cls-5" d="M176.66,65.09,148.81,58,136.1,54.8l-27.85-7.06a2.93,2.93,0,0,0-1.44,5.68l27.85,7.06,12.71,3.23,27.85,7.06a2.93,2.93,0,1,0,1.44-5.68Z"/><path class="cls-5" d="M183.84,79,156,71.94l-12.71-3.23-27.85-7.06A2.93,2.93,0,1,0,114,67.33l27.85,7.06,12.71,3.23,27.85,7.06A2.93,2.93,0,1,0,183.84,79Z"/><path class="cls-5" d="M187.38,92l-27.85-7.07L146.82,81.7,119,74.63a2.93,2.93,0,0,0-1.44,5.68l27.85,7.07,12.71,3.22,27.85,7.07A2.93,2.93,0,1,0,187.38,92Z"/><path class="cls-5" d="M177.89,101.67,150,94.61l-12.71-3.23-27.85-7.07A2.93,2.93,0,0,0,108,90l27.85,7.07,12.71,3.22,27.85,7.07a2.93,2.93,0,1,0,1.44-5.68Z"/><path class="cls-5" d="M169,111.51l-27.85-7.07-12.71-3.22-27.85-7.07a2.93,2.93,0,0,0-1.44,5.68L127,106.9l12.71,3.22,27.85,7.07a2.93,2.93,0,1,0,1.44-5.68Z"/><path class="cls-5" d="M170.66,124,142.81,117l-12.72-3.23-27.84-7.06a2.93,2.93,0,1,0-1.45,5.67l27.85,7.07,12.72,3.23,27.85,7.06a2.93,2.93,0,1,0,1.44-5.68Z"/></g><path class="cls-2" d="M215.19,45.91A2.64,2.64,0,0,0,214,46a2.94,2.94,0,0,0-1,.54,8.63,8.63,0,0,0-1.56,1.69.56.56,0,0,0,.21.77.58.58,0,0,0,.77-.2l.07-.09s.06-.09,0,0l.15-.19.31-.38a5.46,5.46,0,0,1,.69-.67s.11-.08,0,0l.09-.07.19-.12.19-.1s.12-.06,0,0l.1,0,.21-.06.11,0c.1,0-.07,0,0,0h.33s.17,0,0,0a.56.56,0,0,0,.3-1.08Z"/><path class="cls-2" d="M216.84,47.46a4.81,4.81,0,0,1,.5.51l.11.12c.06.07-.07-.09,0,0l0,.05a2.07,2.07,0,0,1,.15.25.67.67,0,0,1,.06.12l0,.06s-.06-.15,0,0a1.43,1.43,0,0,1,.09.27c0,.11.06.21.08.32l0,.18a.38.38,0,0,0,0,.1v0a.65.65,0,0,0,.16.4.55.55,0,0,0,.4.16.57.57,0,0,0,.57-.56,4.41,4.41,0,0,0-.42-1.55,4.77,4.77,0,0,0-1-1.14.58.58,0,0,0-.8,0,.59.59,0,0,0,0,.8Z"/><circle class="cls-5" cx="216.79" cy="46.73" r="12.98"/><path class="cls-6" d="M220.63,41.61a1,1,0,0,0-.6-.8c-.17-.09-.36-.14-.53-.24a3.6,3.6,0,0,1-.77-.69A3.7,3.7,0,0,0,216,38.73a5.2,5.2,0,0,0-3.09,1.46s0,0,0,0c-.6.45-1.53,1-1.55,1.8a6.33,6.33,0,0,1,0,.87,4,4,0,0,1-.26.81,2.42,2.42,0,0,0-.19,1.4c.5,2.43,3.56,2,5.29,2.85a2.37,2.37,0,0,0,1.21.12,1.24,1.24,0,0,0,1-.5,10.74,10.74,0,0,0,1.85-2.69A6.37,6.37,0,0,0,220.63,41.61Z"/><path class="cls-2" d="M219.14,45.58s.09.06,0,0,0,0,0,0l.06,0s-.09-.08,0,0l.06.07c.06.06,0,0,0,0l.09.16,0,0h0s0,0,0,0l.06.19a.94.94,0,0,0,0,.16s0,.07,0,.1,0-.15,0,0a3.32,3.32,0,0,0,.44,1.8.61.61,0,0,0,.34.25.59.59,0,0,0,.43-.05.56.56,0,0,0,.2-.77,1.74,1.74,0,0,1-.11-.18l0-.06s0,0,0,0,0-.07,0-.08a1.55,1.55,0,0,1,0-.23s0-.1,0-.11,0,.1,0,0c0-.33-.05-.65-.11-1a1.76,1.76,0,0,0-1.14-1.43.57.57,0,1,0-.3,1.09Z"/><path class="cls-2" d="M219.59,44.56a5.62,5.62,0,0,0,2-.42,2,2,0,0,0,1.18-1.32.57.57,0,0,0-.4-.69.56.56,0,0,0-.69.39l0,.14c0,.11,0-.08,0,0a.21.21,0,0,0,0,.06s-.09.15-.05.08,0,0,0,0l0,.06-.12.11s.09-.07,0,0l-.09.06a2,2,0,0,1-.32.17c.05,0,.07,0,0,0l-.09,0-.18.06-.4.09-.12,0h0l-.2,0a3.15,3.15,0,0,1-.44,0A.57.57,0,0,0,219,44a.57.57,0,0,0,.56.56Z"/><path class="cls-2" d="M219.75,42.48c0-.06,0-.11,0-.16s0,.09,0,0l0-.07.06-.09c0-.06-.06.07,0,0A.86.86,0,0,1,220,42l.15-.14.09-.07s-.06,0,0,0a3.37,3.37,0,0,1,.35-.22l.17-.09.07,0c-.09,0,0,0,0,0a2.85,2.85,0,0,1,.48-.13h.15l.25,0h.52a.57.57,0,0,0,.57-.56.58.58,0,0,0-.57-.56,4.51,4.51,0,0,0-2.26.46,2.53,2.53,0,0,0-1.32,1.53.56.56,0,0,0,.39.69.57.57,0,0,0,.69-.39Z"/><path class="cls-2" d="M218.74,40.66c0-.1-.07.13,0,0s0,0,0,.06,0,0,0,0-.11.06,0,0l.07,0-.07,0h.05l.1,0,.23,0a1.81,1.81,0,0,0,.84-.45,3.66,3.66,0,0,0,.8-1.44.57.57,0,0,0-.39-.7.58.58,0,0,0-.69.4l-.13.34c.07-.18,0,0,0,.05a1.3,1.3,0,0,1-.08.17l-.19.29c.09-.14,0-.05,0,0l-.05.06a1.42,1.42,0,0,1-.13.12c.11-.11.07,0,0,0l-.07,0-.07,0c-.09,0,.14-.05,0,0s-.29.06-.43.1a1.17,1.17,0,0,0-.87.78.57.57,0,0,0,1.09.3Z"/><path class="cls-2" d="M217.41,39.43a.07.07,0,0,1,0,0l0,.15a1.22,1.22,0,0,1,0-.27l0,.15a.59.59,0,0,1,0-.14s0-.13.05-.14-.06.12,0,0a.25.25,0,0,1,0-.07l.08-.13s-.1.11,0,0,0,0,0,0l.1-.11.06,0c.05-.05-.11.07,0,0l.14-.09.13-.07a.19.19,0,0,1,.08,0h0l.3-.1c.22-.06.44-.1.66-.14a.61.61,0,0,0,.34-.25.57.57,0,0,0,0-.44.52.52,0,0,0-.26-.34.63.63,0,0,0-.43-.05A3.56,3.56,0,0,0,217,38a1.8,1.8,0,0,0-.66,1.74.58.58,0,0,0,.7.4.59.59,0,0,0,.39-.7Z"/><path class="cls-2" d="M216.3,39.29l0,0,0-.06-.07-.11-.06-.12c0-.1,0,.09,0,0l0-.08a4.31,4.31,0,0,1-.15-.62s0,.13,0,.05,0-.06,0-.09,0-.1,0-.15,0-.22,0-.32,0-.21,0-.31,0-.12,0,0,0,0,0,0a.59.59,0,0,1,0-.13.56.56,0,0,0-1.08-.3,4.2,4.2,0,0,0,0,1.58,2.72,2.72,0,0,0,.59,1.42.56.56,0,0,0,.79,0,.58.58,0,0,0,0-.8Z"/><path class="cls-2" d="M214.58,40a2,2,0,0,0-.46-1.62,2.82,2.82,0,0,0-1-.49l-.88-.36a.61.61,0,0,0-.44,0,.63.63,0,0,0-.26.34.58.58,0,0,0,.06.43.63.63,0,0,0,.34.26l1.21.49c.07,0-.1,0,0,0l.06,0,.13.07c.08,0,0,0,0,0l0,0,0,0c.06.07-.06-.09,0,0l.06.09c0,.08,0,0,0-.05a.17.17,0,0,0,0,.05,2,2,0,0,1,.05.24l0-.15a3.2,3.2,0,0,1,0,.62.57.57,0,0,0,1.13,0Z"/><path class="cls-2" d="M213.08,40.84a2.71,2.71,0,0,0-1.05.22l-.21.06c-.11,0,.13,0,0,0h-.13c-.12,0,.11,0,0,0l-.1,0c-.11,0,.09,0,0,0l-.1-.06c-.11-.07,0,0,0,0l-.09-.09-.08-.08c.05.06.06.08,0,0l0,0a2.25,2.25,0,0,1-.12-.21l0,.05a.64.64,0,0,1,0-.07.5.5,0,0,1,0-.13l0-.13c0-.13,0,.09,0,0s0-.21,0-.32a5.85,5.85,0,0,1,0-.59.56.56,0,0,0-.57-.56.57.57,0,0,0-.56.56,3.78,3.78,0,0,0,.07,1.42,2.05,2.05,0,0,0,.76,1.11,1.6,1.6,0,0,0,1.31.24c.16,0,.32-.11.48-.16l.25-.07h.19a.57.57,0,0,0,.56-.56.59.59,0,0,0-.56-.57Z"/><path class="cls-2" d="M209.42,43.59l.07-.09c-.05,0,0,0,0,0h0l.1,0c-.1,0,.11,0,.14,0l.13,0a5.25,5.25,0,0,1,.88.39,9.72,9.72,0,0,1,1.63,1.06.56.56,0,1,0,.8-.79,10.34,10.34,0,0,0-2.1-1.36,3.8,3.8,0,0,0-1.3-.45,1.38,1.38,0,0,0-1.18.45.59.59,0,0,0,0,.8.58.58,0,0,0,.8,0Z"/><path class="cls-2" d="M211.39,44.92a4.89,4.89,0,0,1-.36.63c-.06.08.06-.07,0,0l0,.06-.12.13-.13.12-.08.06h0l-.19.12a.5.5,0,0,1-.19.1s.08,0,0,0l-.13,0-.19.06a8.93,8.93,0,0,1-.9.17.56.56,0,0,0-.39.69.57.57,0,0,0,.69.39,4.07,4.07,0,0,0,1.89-.62,3.23,3.23,0,0,0,.7-.68,4.18,4.18,0,0,0,.4-.68.56.56,0,0,0-1-.57Z"/><path class="cls-2" d="M216.83,46.6a2.52,2.52,0,0,0-2.33.73,1.89,1.89,0,0,0-.34.46,1.19,1.19,0,0,0-.11.74,2.06,2.06,0,0,0,.59,1,6.52,6.52,0,0,0,1,.83.57.57,0,0,0,.77-.21.59.59,0,0,0-.2-.77l-.15-.1-.08-.06s.09.07,0,0l-.06,0c-.12-.09-.23-.2-.34-.3l-.16-.16-.08-.09,0,0,0,0-.06-.09a.35.35,0,0,0-.05-.08s0,0,0,0,0,0,0,0a.55.55,0,0,0-.05-.17c0,.06,0,.13,0,0v0s0,.1,0,.07,0,0,0,0,0,.07,0,.07a.35.35,0,0,0,.05-.08s0-.05,0-.08-.08.09,0,.05,0,0,.05-.05l.15-.14s.11-.08,0,0l.06,0,.2-.12.1-.05.05,0s.09,0,0,0l.07,0,.13,0,.12,0h.06c-.09,0,0,0,.07,0h.11c.13,0-.09,0,0,0l.12,0a.56.56,0,0,0,.69-.39.57.57,0,0,0-.39-.69Z"/><circle class="cls-5" cx="45.67" cy="42.77" r="10.91"/><path class="cls-2" d="M52.08,36.59c.5-.49-.27-1.26-.77-.77-1.68,1.62-3.14,3.44-4.67,5.19l0,0a.52.52,0,0,0-.22.43q-.11,4.4-.35,8.81c0,.7,1.06.7,1.1,0q.22-4.29.34-8.58C49,40,50.43,38.19,52.08,36.59Z"/><path class="cls-2" d="M45.08,40.9a63.07,63.07,0,0,1-5.22-4.44c-.51-.48-1.29.29-.77.78a66.55,66.55,0,0,0,5.28,4.49v0c-.08,2.81,0,5.62-.2,8.43-.05.7,1,.7,1.09,0,.19-2.81.12-5.62.2-8.43a.49.49,0,0,0-.16-.39A.57.57,0,0,0,45.08,40.9Z"/><path class="cls-2" d="M52.37,37a42.28,42.28,0,0,1-4.14,4.42c-.52.48.25,1.25.77.77a42.11,42.11,0,0,0,4.14-4.41C53.58,37.24,52.81,36.46,52.37,37Z"/><path class="cls-2" d="M39,38c-.52-.46-1.3.31-.77.77,1.51,1.34,3.11,2.57,4.59,3.93.52.48,1.3-.29.78-.77C42.13,40.54,40.53,39.31,39,38Z"/><path class="cls-3" d="M123.4,94.77c-30.62,0-59.47-2.7-81.23-7.6C16.74,81.46,5.87,73.66,5.87,63.35l9,0c.2,1.3,7.34,7.23,31.21,12.42,20.79,4.53,48.25,7,77.32,7s56.54-2.49,77.32-7c23.88-5.19,31-11.12,31.22-12.42h8.92c0,10.32-10.79,18.12-36.22,23.83C182.88,92.07,154,94.77,123.4,94.77Z"/><circle class="cls-5" cx="65.83" cy="79.91" r="21.45"/><path class="cls-2" d="M75.05,74.85a.53.53,0,0,1-.41-.35.75.75,0,0,1,0-.15h0a1.17,1.17,0,0,0,.2,0,.74.74,0,0,0,.72-.71.72.72,0,0,0-.72-.72,2.15,2.15,0,0,0-1.24.46,1.24,1.24,0,0,0-.25.35c-.71,0-1.42,0-2.13,0a7,7,0,0,0-1.29-3.19,7.13,7.13,0,0,1,1.29-.73,6.74,6.74,0,0,0,1.69.57A.71.71,0,0,0,73.3,69l-.76-.24a2,2,0,0,1-.56-.18c-.26-.31-.07-1,0-1.31.31-.87-1.07-1.24-1.38-.38a3.18,3.18,0,0,0-.15,1.68,10.48,10.48,0,0,0-1.52.9,7,7,0,0,0-3.08-1.6,16.57,16.57,0,0,1,.2-2.1,3,3,0,0,0,2-1.18c.54-.75-.7-1.46-1.23-.72a1.44,1.44,0,0,1-1,.48c-.48.06-.5-.28-.54-.7-.1-.91-1.53-.92-1.43,0a2.64,2.64,0,0,0,.78,1.83,18.17,18.17,0,0,0-.22,2.21h-.17a6.93,6.93,0,0,0-4.73,1.86c-.33-.5-.66-1-1-1.47a2.56,2.56,0,0,0-.21-2,.72.72,0,0,0-1.24.72,1,1,0,0,1,.14.43.61.61,0,0,1,0,.19.14.14,0,0,0,0,.06l-.16,0a.64.64,0,0,1-.31-.32c-.44-.8-1.68-.08-1.24.73a2.15,2.15,0,0,0,1.9,1.09c.4.56.79,1.14,1.17,1.73a6.86,6.86,0,0,0-1.26,3.72,17.07,17.07,0,0,0-2-.19A2,2,0,0,0,53.54,73c-.92,0-.92,1.39,0,1.43a.51.51,0,0,1,.39.16,1.86,1.86,0,0,1,.11.19s0,.11,0,.12a1.84,1.84,0,0,1-.46.14,5.9,5.9,0,0,1-.73.15.72.72,0,0,0-.5.87.73.73,0,0,0,.88.5,2.72,2.72,0,0,0,2.06-1,13.6,13.6,0,0,1,2.11.22,7,7,0,0,0,1.31,3c-.62.36-1.26.7-1.91,1a4.23,4.23,0,0,0-1.34-.49c-.9-.18-1.29,1.2-.38,1.38.37.08,1,.14,1.16.54.09.23,0,.29-.13.4a3.5,3.5,0,0,0-.55.4c-.67.63.34,1.64,1,1,.26-.26.63-.34.86-.66a1.78,1.78,0,0,0,.22-1.41c.71-.34,1.39-.71,2.06-1.11a6.92,6.92,0,0,0,4.56,1.7q0,.47-.09.93a2.15,2.15,0,0,0-1.68,1.53.71.71,0,0,0,1.37.38c.07-.22.35-.59.63-.51s.34.62.39.86c.19.9,1.56.52,1.38-.38A2.87,2.87,0,0,0,65.58,83a14.84,14.84,0,0,0,.15-1.48,7,7,0,0,0,3.38-1.76A8.68,8.68,0,0,1,70,80.86a2.72,2.72,0,0,0-.29,1.7c.08.91,1.51.92,1.43,0,0-.34-.16-.87.23-1a2.46,2.46,0,0,1,1.45.25.75.75,0,0,0,1-.26.72.72,0,0,0-.26-1,4.66,4.66,0,0,0-2.31-.44,11.89,11.89,0,0,0-1.17-1.48,7,7,0,0,0,1.23-3.51q1,0,2.07,0a2,2,0,0,0,1.32,1.13C75.56,76.44,75.94,75.07,75.05,74.85Z"/><circle class="cls-5" cx="202.52" cy="79.14" r="16.85"/><circle class="cls-2" cx="203.54" cy="79.91" r="5.06"/><path class="cls-2" d="M202.55,89.79a15.4,15.4,0,0,1-9.66-5.37,13.18,13.18,0,0,1-2.83-5.22c-.47-2,2-4.78,3.24-6.17a22,22,0,0,1,5-4.24,5.89,5.89,0,0,1,3.27-1,7.27,7.27,0,0,1,3.37,1.37c2.09,1.26,4.18,2.51,6.26,3.79,1.11.69,2,1.38,2,2.8a8.29,8.29,0,0,1-.83,3.37,35.23,35.23,0,0,1-3.87,6.09c-1.53,2.15-3.34,4.89-6.36,4.49-.76-.1-.75,1.09,0,1.19,2.61.35,4.67-1.43,6.15-3.36a48.73,48.73,0,0,0,4.62-6.8c1-1.85,2.08-4.48,1.18-6.56a5.36,5.36,0,0,0-2.34-2.25c-1.34-.83-2.69-1.63-4-2.45-2.19-1.33-4.51-3.25-7.24-2.8-2.51.41-4.68,2.27-6.48,4a20.59,20.59,0,0,0-4.71,6.17c-1,2.13-.06,4.18,1.05,6.1A16.63,16.63,0,0,0,202.55,91c.76.1.75-1.09,0-1.19Z"/></g></svg>